<svg xmlns="http://www.w3.org/2000/svg" width="24" height="24" viewBox="0 0 24 24">
  <g id="Group_952" data-name="Group 952" transform="translate(-31 -427)">
    <g id="quiz_black_24dp" transform="translate(31 427)">
      <g id="Group_839" data-name="Group 839">
        <path id="Path_176" data-name="Path 176" d="M0,0H24V24H0Z" fill="none"/>
      </g>
      <g id="Group_840" data-name="Group 840">
        <path id="Path_177" data-name="Path 177" d="M4,6H2V20a2.006,2.006,0,0,0,2,2H18V20H4ZM20,2H8A2.006,2.006,0,0,0,6,4V16a2.006,2.006,0,0,0,2,2H20a2.006,2.006,0,0,0,2-2V4A2.006,2.006,0,0,0,20,2Zm0,14H8V4H20Zm-6.49-5.84c.41-.73,1.18-1.16,1.63-1.8A1.234,1.234,0,0,0,14,6.42a1.589,1.589,0,0,0-1.5,1.23l-1.37-.57A2.98,2.98,0,0,1,13.99,5,2.829,2.829,0,0,1,16.5,6.26a2.507,2.507,0,0,1,.01,2.57c-.63.93-1.23,1.21-1.56,1.81-.13.24-.18.4-.18,1.18H13.25A3.384,3.384,0,0,1,13.51,10.16Zm-.56,3.79A1.035,1.035,0,0,1,14,12.91,1.045,1.045,0,0,1,14,15,1.05,1.05,0,0,1,12.95,13.95Z" fill="#fff"/>
      </g>
    </g>
  </g>
</svg>
