<svg xmlns="http://www.w3.org/2000/svg" width="24.037" height="25" viewBox="0 0 24.037 25">
  <g id="Group_951" data-name="Group 951" transform="translate(-30.737 -380.838)">
    <g id="settings_black_24dp" transform="translate(30.737 380.838)">
      <path id="Path_168" data-name="Path 168" d="M0,0H24.037V25H0Z" fill="none"/>
      <path id="Path_169" data-name="Path 169" d="M20.5,14.1a8.9,8.9,0,0,0,.074-1.08,8.9,8.9,0,0,0-.074-1.08l2.241-1.818a.57.57,0,0,0,.127-.7L20.741,5.6a.527.527,0,0,0-.467-.275.48.48,0,0,0-.181.033l-2.645,1.1a7.7,7.7,0,0,0-1.8-1.08l-.4-2.919A.524.524,0,0,0,14.729,2H10.48a.524.524,0,0,0-.52.463l-.4,2.919a8.1,8.1,0,0,0-1.8,1.08L5.117,5.36a.582.582,0,0,0-.191-.033.523.523,0,0,0-.457.275L2.344,9.413a.557.557,0,0,0,.127.7l2.241,1.818a9.055,9.055,0,0,0-.074,1.08,9.054,9.054,0,0,0,.074,1.08L2.472,15.913a.57.57,0,0,0-.127.7l2.124,3.811a.527.527,0,0,0,.467.275.48.48,0,0,0,.181-.033l2.645-1.1a7.7,7.7,0,0,0,1.8,1.08l.4,2.919a.524.524,0,0,0,.52.463h4.249a.524.524,0,0,0,.52-.463l.4-2.919a8.1,8.1,0,0,0,1.8-1.08l2.645,1.1a.582.582,0,0,0,.191.033.523.523,0,0,0,.457-.275l2.124-3.811a.57.57,0,0,0-.127-.7Zm-2.1-1.884a6.1,6.1,0,0,1,.053.8c0,.231-.021.474-.053.8l-.149,1.245.945.771,1.147.925-.744,1.333-1.349-.562-1.1-.463-.956.749a6.172,6.172,0,0,1-1.328.8l-1.126.474-.17,1.245-.212,1.487H11.861l-.2-1.487-.17-1.245-1.126-.474a5.977,5.977,0,0,1-1.306-.782l-.967-.771-1.126.474L5.616,18.1l-.744-1.333,1.147-.925.945-.771-.149-1.245c-.032-.341-.053-.595-.053-.815s.021-.474.053-.8l.149-1.245L6.019,10.2,4.872,9.27l.744-1.333L6.965,8.5l1.1.463.956-.749a6.172,6.172,0,0,1,1.328-.8l1.126-.474.17-1.245L11.861,4.2h1.476l.2,1.487.17,1.245,1.126.474a5.977,5.977,0,0,1,1.306.782l.967.771,1.126-.474,1.349-.562.744,1.333L19.19,10.2l-.945.771.149,1.245ZM12.6,8.609a4.328,4.328,0,0,0-4.249,4.406A4.328,4.328,0,0,0,12.6,17.422a4.328,4.328,0,0,0,4.249-4.406A4.328,4.328,0,0,0,12.6,8.609Zm0,6.609a2.2,2.2,0,1,1,2.124-2.2A2.171,2.171,0,0,1,12.6,15.219Z" transform="translate(-0.585 -0.516)" fill="#fff"/>
    </g>
  </g>
</svg>
