<svg xmlns="http://www.w3.org/2000/svg" width="247.818" height="87.273" viewBox="0 0 247.818 87.273">
  <g id="Group_826" data-name="Group 826" transform="translate(-817 -292.727)">
    <g id="Group_820" data-name="Group 820" transform="translate(-1 1)">
      <text id="tongue" transform="translate(818 363)" fill="#fff" font-size="60" font-family="Roboto-Medium, Roboto" font-weight="500"><tspan x="0" y="0">tongue</tspan></text>
      <text id="out" transform="translate(1006 332)" fill="#fff" font-size="36" font-family="Roboto-Medium, Roboto" font-weight="500" letter-spacing="0.032em"><tspan x="0" y="0">out</tspan></text>
      <g id="Group_798" data-name="Group 798" transform="translate(418.183 34.579) rotate(1)">
        <g id="Speech_Bubble" data-name="Speech Bubble" transform="translate(672.869 253.393) rotate(110)">
          <g id="Group_786" data-name="Group 786" transform="translate(0 22.183) rotate(-21)">
            <g id="Group_785" data-name="Group 785" transform="translate(0 0)">
              <g id="Group_784" data-name="Group 784">
                <g id="Group_783" data-name="Group 783">
                  <g id="Group_782" data-name="Group 782">
                    <g id="Group_781" data-name="Group 781">
                      <path id="Path_148" data-name="Path 148" d="M30.948.012A3.128,3.128,0,0,0,30.417,0l-1.56.044c-.343.016-.728.015-1.15.051L26.33.291,24.724.522,22.93.967a29.056,29.056,0,0,0-8.7,3.792,31.213,31.213,0,0,0-8.995,8.76,31.475,31.475,0,0,0-5.1,14.309,31.834,31.834,0,0,0-.086,4.2c.05.711.036,1.434.14,2.151l.326,2.166a30.86,30.86,0,0,0,2.923,8.558A32.962,32.962,0,0,0,9.029,52.6a32.317,32.317,0,0,0,8.053,5.785A29.264,29.264,0,0,0,26.9,61.4a19.5,19.5,0,0,0,2.618.223,23.572,23.572,0,0,0,2.646.048,31.424,31.424,0,0,0,5.3-.67,30.987,30.987,0,0,0,10.554-4.441l-.32.032L58.45,60.907l.637.255L58.9,60.5q-1.628-5.917-3.161-11.493l-.054.284a30.846,30.846,0,0,0,5.737-13.133,27.924,27.924,0,0,0,.419-6.729A21.727,21.727,0,0,0,61.54,26.2q-.123-.792-.245-1.573c-.1-.517-.254-1.018-.376-1.522A30.746,30.746,0,0,0,48.925,5.618a29.4,29.4,0,0,0-7.138-3.765L40.18,1.277,38.653.89l-1.4-.347c-.449-.086-.881-.132-1.286-.194-.813-.1-1.526-.243-2.153-.275L32.239.021,31.274,0a1.5,1.5,0,0,0-.326.011,1.442,1.442,0,0,0,.326.045l.961.076L33.8.238c.621.049,1.328.206,2.132.324A30.576,30.576,0,0,1,60.382,23.24c.117.5.27.988.362,1.5s.154,1.027.232,1.545a21.158,21.158,0,0,1,.285,3.174,27.412,27.412,0,0,1-.436,6.6A30.3,30.3,0,0,1,55.167,48.9l-.1.128.043.156q1.519,5.569,3.137,11.5l.455-.406L47.958,55.948l-.168-.068-.152.1a30.347,30.347,0,0,1-10.319,4.338,30.871,30.871,0,0,1-5.182.656,23.246,23.246,0,0,1-2.588-.046,19,19,0,0,1-2.56-.216,28.632,28.632,0,0,1-9.6-2.936A31.689,31.689,0,0,1,9.5,52.129a32.375,32.375,0,0,1-5.49-7.516,30.319,30.319,0,0,1-2.891-8.375Q.955,35.17.791,34.117C.686,33.414.7,32.7.647,32.008a31.317,31.317,0,0,1,.065-4.127A30.37,30.37,0,0,1,14.445,5.087,29.246,29.246,0,0,1,23,1.23L24.772.757,26.362.5,27.725.272c.419-.046.8-.057,1.142-.085L30.418.075A2.881,2.881,0,0,0,30.948.012Z" fill="#fff"/>
                    </g>
                  </g>
                </g>
              </g>
            </g>
          </g>
        </g>
      </g>
    </g>
  </g>
</svg>
